<svg xmlns="http://www.w3.org/2000/svg" width="336.10577392578125px" height="120.8px" viewBox="81.94711303710938 14.600000000000001 336.10577392578125 120.8" style="background: rgba(0, 0, 0, 0);" preserveAspectRatio="xMidYMid"><defs><linearGradient id="editing-gradow-gradient" x1="0" x2="1" y1="0.5" y2="0.5" gradientUnits="objectBoundingBox"><stop offset="0" stop-color="#f0f"/><stop offset="1" stop-color="#0ff"/></linearGradient><filter id="editing-gradow-filter" x="-100%" y="-100%" width="300%" height="300%"><feFlood flood-color="#fffcd9" result="flood"/><feComposite operator="in" in2="SourceAlpha" in="flood" result="shadow"/><feOffset dx="-4" dy="-4" in="SourceGraphic" result="offset-1"/><feOffset dx="4" dy="4" in="shadow" result="offset-2"/><feMerge><feMergeNode in="offset-2"/><feMergeNode in="offset-1"/></feMerge></filter></defs><g filter="url(#editing-gradow-filter)"><g transform="translate(134.066477060318, 98.68000030517578)"><path d="M14.21 0L0.51 0L8.32-42.05L8.32-42.05Q14.66-42.75 23.90-42.75L23.90-42.75L23.90-42.75Q33.15-42.75 37.44-40.06L37.44-40.06L37.44-40.06Q41.73-37.38 41.73-31.97L41.73-31.97L41.73-31.97Q41.73-26.56 38.94-23.17L38.94-23.17L38.94-23.17Q36.16-19.78 31.36-18.69L31.36-18.69L31.36-18.69Q32.45-13.38 34.94-9.09L34.94-9.09L34.94-9.09Q37.25-5.06 39.94-3.78L39.94-3.78L39.94-3.78Q38.98-1.09 37.02 0.10L37.02 0.10L37.02 0.10Q35.07 1.28 32.29 1.28L32.29 1.28L32.29 1.28Q29.50 1.28 27.33-0.35L27.33-0.35L27.33-0.35Q25.15-1.98 23.42-4.99L23.42-4.99L23.42-4.99Q19.78-11.52 19.39-21.82L19.39-21.82L19.84-21.82L19.84-21.82Q24.58-21.95 26.94-24.42L26.94-24.42L26.94-24.42Q29.31-26.88 29.31-32.06L29.31-32.06L29.31-32.06Q29.31-38.53 23.87-38.78L23.87-38.78L22.46-38.78L22.46-38.78Q21.89-38.78 21.57-38.72L21.57-38.72L14.21 0ZM70.59-10.82L70.59-10.82L70.59-10.82Q72.19-9.73 72.19-7.33L72.19-7.33L72.19-7.33Q72.19-4.93 70.98-3.39L70.98-3.39L70.98-3.39Q69.76-1.86 67.78-0.83L67.78-0.83L67.78-0.83Q63.68 1.28 59.26 1.28L59.26 1.28L59.26 1.28Q54.85 1.28 52.26 0.32L52.26 0.32L52.26 0.32Q49.66-0.64 47.94-2.43L47.94-2.43L47.94-2.43Q44.54-5.82 44.54-12.03L44.54-12.03L44.54-12.03Q44.54-21.70 49.79-27.58L49.79-27.58L49.79-27.58Q55.42-33.92 65.22-33.92L65.22-33.92L65.22-33.92Q71.30-33.92 74.30-31.36L74.30-31.36L74.30-31.36Q76.54-29.44 76.54-26.30L76.54-26.30L76.54-26.30Q76.54-15.04 57.09-15.04L57.09-15.04L57.09-15.04Q56.83-13.38 56.83-11.97L56.83-11.97L56.83-11.97Q56.83-9.02 58.14-7.90L58.14-7.90L58.14-7.90Q59.46-6.78 61.89-6.78L61.89-6.78L61.89-6.78Q64.32-6.78 66.91-7.90L66.91-7.90L66.91-7.90Q69.50-9.02 70.59-10.82ZM57.54-17.79L57.54-17.79L57.54-17.79Q62.08-17.79 64.70-20.61L64.70-20.61L64.70-20.61Q67.33-23.30 67.33-27.58L67.33-27.58L67.33-27.58Q67.33-29.06 66.78-29.86L66.78-29.86L66.78-29.86Q66.24-30.66 65.15-30.66L65.15-30.66L65.15-30.66Q64.06-30.66 63.14-30.24L63.14-30.24L63.14-30.24Q62.21-29.82 61.25-28.42L61.25-28.42L61.25-28.42Q58.88-25.22 57.54-17.79ZM77.89-3.07L77.89-3.07L85.82-44.80L98.82-46.08L96.83-36.29L96.83-36.29Q96.13-33.28 95.23-31.17L95.23-31.17L95.23-31.17Q96.64-32.96 99.71-33.66L99.71-33.66L99.71-33.66Q100.61-33.92 101.70-33.92L101.70-33.92L101.70-33.92Q107.65-33.92 110.91-30.30L110.91-30.30L110.91-30.30Q114.18-26.69 114.18-19.71L114.18-19.71L114.18-19.71Q114.18-10.62 108.99-4.93L108.99-4.93L108.99-4.93Q103.42 1.28 93.31 1.28L93.31 1.28L93.31 1.28Q86.34 1.28 81.09-1.02L81.09-1.02L81.09-1.02Q79.23-1.86 77.89-3.07ZM94.14-22.40L90.75-3.65L90.75-3.65Q92.10-2.50 93.76-2.50L93.76-2.50L93.76-2.50Q95.42-2.50 96.38-3.14L96.38-3.14L96.38-3.14Q97.34-3.78 98.05-5.06L98.05-5.06L98.05-5.06Q99.97-8.51 101.50-19.07L101.50-19.07L101.50-19.07Q101.95-22.08 101.95-25.09L101.95-25.09L101.95-25.09Q101.95-28.10 101.28-29.06L101.28-29.06L101.28-29.06Q100.61-30.02 99.33-30.02L99.33-30.02L99.33-30.02Q95.42-30.02 94.14-22.40L94.14-22.40ZM120.80-1.92L120.80-1.92L120.80-1.92Q119.30-3.58 118.62-6.21L118.62-6.21L118.62-6.21Q117.95-8.83 117.95-13.12L117.95-13.12L117.95-13.12Q117.95-17.41 119.42-21.31L119.42-21.31L119.42-21.31Q120.90-25.22 123.58-28.03L123.58-28.03L123.58-28.03Q129.09-33.92 138.18-33.92L138.18-33.92L138.18-33.92Q141.44-33.92 143.81-32.83L143.81-32.83L154.75-33.92L150.02-8.96L150.02-8.96Q149.82-8.19 149.82-6.78L149.82-6.78L149.82-6.78Q149.82-5.38 150.69-4.48L150.69-4.48L150.69-4.48Q151.55-3.58 152.83-3.46L152.83-3.46L152.83-3.46Q152.19-1.28 149.86 0L149.86 0L149.86 0Q147.52 1.28 144.90 1.28L144.90 1.28L144.90 1.28Q142.27 1.28 140.51 0.29L140.51 0.29L140.51 0.29Q138.75-0.70 138.24-2.37L138.24-2.37L138.24-2.37Q137.22-0.77 135.04 0.26L135.04 0.26L135.04 0.26Q132.86 1.28 129.95 1.28L129.95 1.28L129.95 1.28Q127.04 1.28 124.67 0.51L124.67 0.51L124.67 0.51Q122.30-0.26 120.80-1.92ZM134.30-27.90L134.30-27.90L134.30-27.90Q133.57-26.75 132.93-24.80L132.93-24.80L132.93-24.80Q132.29-22.85 131.23-17.63L131.23-17.63L131.23-17.63Q130.18-12.42 130.18-8.70L130.18-8.70L130.18-8.70Q130.18-4.99 130.75-3.90L130.75-3.90L130.75-3.90Q131.33-2.82 132.35-2.82L132.35-2.82L132.35-2.82Q134.40-2.82 135.90-4.77L135.90-4.77L135.90-4.77Q137.41-6.72 137.98-10.18L137.98-10.18L141.38-28.93L141.38-28.93Q140.03-30.08 138.46-30.08L138.46-30.08L138.46-30.08Q136.90-30.08 135.97-29.57L135.97-29.57L135.97-29.57Q135.04-29.06 134.30-27.90ZM199.49 1.28L199.49 1.28L199.49 1.28Q191.30 1.28 190.53-10.37L190.53-10.37L179.52-10.37L179.52-10.37Q178.24-7.42 177.34-4.86L177.34-4.86L175.68 0L166.72 0L186.88-42.24L200.64-42.24L203.33-11.14L203.33-11.14Q203.97-4.42 206.53-2.43L206.53-2.43L206.53-2.43Q204.67 1.28 199.49 1.28ZM185.02-23.17L181.50-15.04L190.34-15.04L189.57-31.49L189.57-33.22L185.02-23.17ZM223.49 0L209.54 0L217.66-42.24L231.74-42.24L223.49 0Z" fill="url(#editing-gradow-gradient)"/></g></g><style>text {
  font-size: 64px;
  font-family: Arial Black;
  dominant-baseline: central;
  text-anchor: middle;
}</style></svg>